<svg xmlns="http://www.w3.org/2000/svg" viewBox="0 0 40 40" fill="none" width="40" height="40">
  <!-- House outline -->
  <!-- Roof triangle -->
  <polyline points="20,3 2,16 38,16" stroke="#374151" stroke-width="2" stroke-linecap="round" stroke-linejoin="round" fill="none"/>
  <!-- Left wall -->
  <line x1="5" y1="16" x2="5" y2="37" stroke="#374151" stroke-width="2" stroke-linecap="round"/>
  <!-- Right wall -->
  <line x1="35" y1="16" x2="35" y2="37" stroke="#374151" stroke-width="2" stroke-linecap="round"/>
  <!-- Floor -->
  <line x1="5" y1="37" x2="35" y2="37" stroke="#374151" stroke-width="2" stroke-linecap="round"/>
  <!-- Sofa inside (gold accent) -->
  <!-- Sofa back -->
  <path d="M11,26 Q11,23 13,23 L27,23 Q29,23 29,26 L29,30" stroke="#C6A15B" stroke-width="1.8" stroke-linecap="round" stroke-linejoin="round" fill="none"/>
  <!-- Left armrest -->
  <path d="M11,26 L11,32 Q11,33 12,33 L13,33" stroke="#C6A15B" stroke-width="1.8" stroke-linecap="round" stroke-linejoin="round" fill="none"/>
  <!-- Right armrest -->
  <path d="M29,26 L29,32 Q29,33 28,33 L27,33" stroke="#C6A15B" stroke-width="1.8" stroke-linecap="round" stroke-linejoin="round" fill="none"/>
  <!-- Seat line -->
  <line x1="13" y1="30" x2="27" y2="30" stroke="#C6A15B" stroke-width="1.8" stroke-linecap="round"/>
  <line x1="13" y1="33" x2="27" y2="33" stroke="#C6A15B" stroke-width="1.5" stroke-linecap="round"/>
  <!-- Legs -->
  <line x1="14" y1="33" x2="14" y2="37" stroke="#C6A15B" stroke-width="1.5" stroke-linecap="round"/>
  <line x1="26" y1="33" x2="26" y2="37" stroke="#C6A15B" stroke-width="1.5" stroke-linecap="round"/>
</svg>
